<?xml version="1.0" encoding="UTF-8" standalone="no"?>
<!-- Created with Inkscape (http://www.inkscape.org/) -->

<svg
   width="210mm"
   height="297mm"
   viewBox="0 0 210 297"
   version="1.1"
   id="svg1"
   inkscape:version="1.3.1 (91b66b0783, 2023-11-16)"
   sodipodi:docname="title.svg"
   xmlns:inkscape="http://www.inkscape.org/namespaces/inkscape"
   xmlns:sodipodi="http://sodipodi.sourceforge.net/DTD/sodipodi-0.dtd"
   xmlns="http://www.w3.org/2000/svg"
   xmlns:svg="http://www.w3.org/2000/svg">
  <sodipodi:namedview
     id="namedview1"
     pagecolor="#ffffff"
     bordercolor="#000000"
     borderopacity="0.25"
     inkscape:showpageshadow="2"
     inkscape:pageopacity="0.0"
     inkscape:pagecheckerboard="0"
     inkscape:deskcolor="#d1d1d1"
     inkscape:document-units="mm"
     inkscape:zoom="2.2108562"
     inkscape:cx="341.72281"
     inkscape:cy="464.52591"
     inkscape:window-width="1920"
     inkscape:window-height="966"
     inkscape:window-x="0"
     inkscape:window-y="0"
     inkscape:window-maximized="1"
     inkscape:current-layer="layer1" />
  <defs
     id="defs1">
    <rect
       x="95.968518"
       y="160.97982"
       width="654.85848"
       height="303.44141"
       id="rect1" />
  </defs>
  <g
     inkscape:label="Layer 1"
     inkscape:groupmode="layer"
     id="layer1">
    <path
       d="m 27.656026,109.85192 c 0,-2.93246 -2.579679,-4.27742 -6.008226,-4.27742 l -3.792348,0.011 c -0.418923,0.011 -0.793748,0.39687 -0.793748,0.82682 l 0.02205,13.73623 c 0,0.44098 0.363801,0.69453 0.804772,0.69453 l 5.655449,0.011 c 3.053722,0.022 4.740435,-1.55442 4.740435,-4.5861 0,-1.67569 -0.771699,-2.88836 -1.874125,-3.57186 0.804771,-0.74965 1.245742,-1.55442 1.245742,-2.84426 z m -5.931056,-2.57968 c 2.436363,0 4.277416,0.71658 4.277416,2.61275 0,1.5434 -1.025257,2.13871 -2.689922,2.16076 l -4.586095,0.0661 -0.01102,-4.82863 z m 1.785931,12.00543 -4.773508,0.022 -0.01102,-5.53419 4.619168,-0.0661 h 0.176388 c 1.96232,0 3.108844,0.74965 3.108844,2.62377 0,2.17178 -1.047306,2.94348 -3.119868,2.95451 z m 7.970545,-13.69214 c -0.418922,0 -0.771699,0.42994 -0.771699,0.85989 v 13.8575 c 0,0.48507 0.38585,0.82682 0.892966,0.82682 0.319704,0 0.760675,-0.3197 0.760675,-0.70555 v -14.00082 c 0,-0.39687 -0.341753,-0.83784 -0.881942,-0.83784 z m 8.808389,3.94669 c -3.075771,0 -5.50111,2.71196 -5.50111,5.77671 0,3.0868 2.414315,5.78774 5.545207,5.78774 3.086795,-0.0221 5.479061,-2.72299 5.479061,-5.78774 0,-3.07577 -2.436363,-5.77671 -5.523158,-5.77671 z m 0,1.65364 c 2.182805,0 3.869518,1.94027 3.869518,4.12307 0,2.18281 -1.664665,4.11205 -3.836445,4.1341 -2.215878,0 -3.880543,-1.95129 -3.880543,-4.15615 0,-2.17178 1.686713,-4.10102 3.84747,-4.10102 z m 7.728013,4.11205 c 0,3.06474 2.370217,5.73262 5.445988,5.73262 2.24895,0 3.968736,-1.40009 4.707362,-3.02065 0.0441,-0.0882 0.07717,-0.24254 0.07717,-0.34176 0,-0.45199 -0.374825,-0.82682 -0.82682,-0.82682 -0.297656,0 -0.628384,0.22049 -0.749651,0.4961 -0.507116,1.10242 -1.675688,2.05051 -3.208061,2.05051 -2.149733,0 -3.803373,-1.91822 -3.803373,-4.07898 0,-2.16076 1.664665,-4.07898 3.803373,-4.07898 1.532373,0 2.689921,0.95911 3.197037,2.06154 0.121267,0.27561 0.451995,0.48507 0.74965,0.48507 0.451995,0 0.82682,-0.3638 0.82682,-0.8158 0,-0.0992 -0.0441,-0.26458 -0.08819,-0.35277 -0.738626,-1.62057 -2.436363,-3.02065 -4.685313,-3.02065 -3.053722,0 -5.445988,2.65684 -5.445988,5.71057 z m 12.655856,-8.91864 v 13.86853 c -0.01102,0.42995 0.341753,0.78273 0.771699,0.78273 0.429946,0 0.771699,-0.34176 0.771699,-0.7717 v -3.37343 l 1.289839,-1.25677 3.792348,5.12629 c 0.132291,0.17639 0.396874,0.30868 0.617359,0.30868 0.429946,0 0.771699,-0.34175 0.771699,-0.7717 0,-0.14332 -0.07717,-0.3638 -0.165364,-0.47404 l -3.935664,-5.17038 3.781324,-3.92464 c 0.121267,-0.12127 0.220485,-0.3638 0.220485,-0.54019 0,-0.42995 -0.341752,-0.7717 -0.771698,-0.7717 -0.198437,0 -0.440971,0.11024 -0.562238,0.24253 -1.675689,1.77491 -3.439572,3.48367 -5.03809,5.33575 v -8.59893 c 0.01102,-0.44097 -0.341753,-0.78272 -0.771699,-0.78272 -0.429946,0 -0.771699,0.35277 -0.771699,0.77169 z"
       id="text3"
       style="font-size:22.5777px;font-family:Manjari;-inkscape-font-specification:Manjari;white-space:pre;stroke:#4ba2c9;stroke-width:2;stroke-dasharray:none;stroke-opacity:1"
       aria-label="Block" />
    <path
       d="m 48.039541,120.08092 c 0.639408,0 1.190621,-0.51814 1.190621,-1.16857 0,-0.65043 -0.551213,-1.16858 -1.190621,-1.16858 -0.639407,0 -1.190621,0.51815 -1.190621,1.16858 0,0.65043 0.551214,1.16857 1.190621,1.16857 z m -0.804771,2.39227 0.02205,9.99901 c 0,0.46301 0.363801,0.83784 0.82682,0.83784 0.451995,0 0.82682,-0.37483 0.82682,-0.82682 l -0.02205,-9.88877 c 0,-0.49609 -0.374825,-0.83784 -0.892966,-0.83784 -0.308679,0 -0.760674,0.33073 -0.760674,0.71658 z m 5.468036,-0.73863 c -0.474043,0 -0.82682,0.37482 -0.82682,0.83784 l 0.01102,9.8998 c 0,0.46301 0.363801,0.83784 0.82682,0.83784 0.451995,0 0.82682,-0.37483 0.82682,-0.82682 v -5.40189 c 0,-2.32612 1.234718,-3.66006 3.626984,-3.66006 1.907199,0 2.392266,1.74184 2.392266,3.69313 l -0.01102,5.33575 c 0,0.46302 0.363801,0.83784 0.82682,0.83784 0.451995,0 0.82682,-0.37482 0.82682,-0.82682 l 0.01103,-5.34677 c 0,-2.81119 -1.124476,-5.34677 -4.045907,-5.34677 -1.686712,0 -2.855285,1.14653 -3.638008,2.10564 l -0.05512,-1.31189 c 0,-0.452 -0.319704,-0.82682 -0.771699,-0.82682 z"
       id="text2"
       style="font-size:22.5777px;font-family:Manjari;-inkscape-font-specification:Manjari;white-space:pre;fill:#d91ec2;fill-opacity:1;stroke:#d91ec2;stroke-width:2;stroke-dasharray:none;stroke-opacity:1"
       aria-label="in" />
    <path
       d="m 33.150211,129.55755 c 0,-2.93245 -2.57968,-4.27742 -6.00822,-4.27742 l -3.79235,0.011 c -0.41892,0.011 -0.79375,0.39687 -0.79375,0.82682 l 0.0221,13.73624 c 0,0.44097 0.3638,0.69453 0.80477,0.69453 l 5.65545,0.011 c 3.05372,0.0221 4.74043,-1.55442 4.74043,-4.5861 0,-1.67568 -0.77169,-2.88835 -1.87412,-3.57186 0.80477,-0.74965 1.24574,-1.55442 1.24574,-2.84426 z m -5.93105,-2.57968 c 2.43636,0 4.27741,0.71658 4.27741,2.61275 0,1.5434 -1.02526,2.13871 -2.68992,2.16076 l -4.5861,0.0661 -0.011,-4.82863 z m 1.78593,12.00543 -4.77351,0.0221 -0.011,-5.53418 4.61917,-0.0662 h 0.17639 c 1.96232,0 3.10884,0.74965 3.10884,2.62378 0,2.17178 -1.0473,2.94347 -3.11986,2.9545 z m 8.16898,-11.41012 c 0.63941,0 1.19062,-0.51814 1.19062,-1.16857 0,-0.65043 -0.55121,-1.16857 -1.19062,-1.16857 -0.63941,0 -1.19062,0.51814 -1.19062,1.16857 0,0.65043 0.55121,1.16857 1.19062,1.16857 z m -0.80477,2.39227 0.0221,9.99901 c 0,0.46302 0.3638,0.83784 0.82682,0.83784 0.45199,0 0.82682,-0.37482 0.82682,-0.82682 l -0.022,-9.88876 c 0,-0.4961 -0.37483,-0.83785 -0.89297,-0.83785 -0.30868,0 -0.76067,0.33073 -0.76067,0.71658 z m 6.34998,-3.02065 -0.011,2.48046 h -1.69774 c -0.42994,0 -0.77169,0.34175 -0.77169,0.7717 0,0.42994 0.34175,0.7717 0.77169,0.7717 h 1.69774 l -0.011,6.84607 c 0,1.76388 0.87091,2.98757 2.61275,2.98757 0.82682,0 2.282022,-0.2756 2.282022,-1.20164 0,-0.452 -0.37482,-0.82682 -0.826822,-0.82682 -0.55121,0 -0.88194,0.3638 -1.52135,0.3638 -0.7276,0 -0.89296,-0.51814 -0.89296,-1.30086 l 0.011,-6.87915 2.14973,0.011 c 0.429952,0 0.771702,-0.34176 0.771702,-0.7717 0,-0.42995 -0.34175,-0.7717 -0.771702,-0.7717 l -2.14973,-0.011 0.011,-2.46944 c 0,-0.452 -0.37483,-0.82682 -0.82682,-0.82682 -0.46302,0 -0.82682,0.37482 -0.82682,0.82682 z m 11.972353,2.24895 c -2.30407,0 -5.049121,1.02526 -5.049121,3.48367 0,2.20485 2.193831,2.74504 4.078981,2.96553 1.40009,0.16536 4.37664,0.0661 4.37664,1.59851 0,1.46623 -1.85208,1.9513 -3.3624,1.9513 -1.76389,0 -3.1309,-0.54019 -3.75928,-1.75286 -0.12127,-0.24253 -0.44097,-0.44097 -0.71658,-0.44097 -0.44097,0 -0.793741,0.35278 -0.793741,0.79375 0,0.11024 0.0331,0.27561 0.0882,0.37482 0.881941,1.71979 2.888361,2.62378 5.181411,2.62378 2.43636,0 4.94989,-1.06935 4.94989,-3.54982 0,-2.29304 -2.21588,-2.77811 -4.22229,-2.98757 -1.34496,-0.14332 -4.23332,-0.13229 -4.23332,-1.57647 0,-1.37804 2.08359,-1.88515 3.4506,-1.88515 1.43315,0 2.56865,0.54019 3.09781,1.53237 0.12127,0.24254 0.44097,0.42995 0.70556,0.42995 0.44097,0 0.80477,-0.35278 0.80477,-0.79375 0,-0.11024 -0.0441,-0.28663 -0.0992,-0.38585 -0.78272,-1.46623 -2.53558,-2.38124 -4.4979,-2.38124 z"
       id="text1"
       style="font-size:22.5777px;font-family:Manjari;-inkscape-font-specification:Manjari;white-space:pre;fill:#f2a100;fill-opacity:1;stroke:#f2a100;stroke-width:2;stroke-dasharray:none;stroke-opacity:1"
       aria-label="Bits" />
  </g>
</svg>
